<svg width="524" height="48" viewBox="0 0 524 48" fill="none" xmlns="http://www.w3.org/2000/svg">
<path d="M27.752 25.184C27.752 25.28 27.704 25.952 27.608 27.2H8.072C8.424 28.8 9.256 30.064 10.568 30.992C11.88 31.92 13.512 32.384 15.464 32.384C16.808 32.384 17.992 32.192 19.016 31.808C20.072 31.392 21.048 30.752 21.944 29.888L25.928 34.208C23.496 36.992 19.944 38.384 15.272 38.384C12.36 38.384 9.784 37.824 7.544 36.704C5.304 35.552 3.576 33.968 2.36 31.952C1.144 29.936 0.536 27.648 0.536 25.088C0.536 22.56 1.128 20.288 2.312 18.272C3.528 16.224 5.176 14.64 7.256 13.52C9.368 12.368 11.72 11.792 14.312 11.792C16.84 11.792 19.128 12.336 21.176 13.424C23.224 14.512 24.824 16.08 25.976 18.128C27.16 20.144 27.752 22.496 27.752 25.184ZM14.36 17.456C12.664 17.456 11.24 17.936 10.088 18.896C8.936 19.856 8.232 21.168 7.976 22.832H20.696C20.44 21.2 19.736 19.904 18.584 18.944C17.432 17.952 16.024 17.456 14.36 17.456ZM48.0013 11.792C50.4013 11.792 52.5773 12.352 54.5293 13.472C56.5133 14.56 58.0653 16.112 59.1853 18.128C60.3053 20.112 60.8653 22.432 60.8653 25.088C60.8653 27.744 60.3053 30.08 59.1853 32.096C58.0653 34.08 56.5133 35.632 54.5293 36.752C52.5773 37.84 50.4013 38.384 48.0013 38.384C44.7053 38.384 42.1133 37.344 40.2253 35.264V47.312H32.7373V12.176H39.8893V15.152C41.7453 12.912 44.4493 11.792 48.0013 11.792ZM46.7053 32.24C48.6253 32.24 50.1933 31.6 51.4093 30.32C52.6573 29.008 53.2812 27.264 53.2812 25.088C53.2812 22.912 52.6573 21.184 51.4093 19.904C50.1933 18.592 48.6253 17.936 46.7053 17.936C44.7853 17.936 43.2013 18.592 41.9532 19.904C40.7373 21.184 40.1293 22.912 40.1293 25.088C40.1293 27.264 40.7373 29.008 41.9532 30.32C43.2013 31.6 44.7853 32.24 46.7053 32.24ZM65.8779 12.176H73.3659V38H65.8779V12.176ZM69.6219 8.576C68.2459 8.576 67.1259 8.176 66.2619 7.376C65.3979 6.576 64.9659 5.584 64.9659 4.4C64.9659 3.216 65.3979 2.224 66.2619 1.424C67.1259 0.623998 68.2459 0.223997 69.6219 0.223997C70.9979 0.223997 72.1179 0.607998 72.9819 1.376C73.8459 2.144 74.2779 3.104 74.2779 4.256C74.2779 5.504 73.8459 6.544 72.9819 7.376C72.1179 8.176 70.9979 8.576 69.6219 8.576ZM92.7954 38.384C90.0434 38.384 87.5634 37.824 85.3554 36.704C83.1794 35.552 81.4674 33.968 80.2194 31.952C79.0034 29.936 78.3954 27.648 78.3954 25.088C78.3954 22.528 79.0034 20.24 80.2194 18.224C81.4674 16.208 83.1794 14.64 85.3554 13.52C87.5634 12.368 90.0434 11.792 92.7954 11.792C95.5154 11.792 97.8834 12.368 99.8994 13.52C101.947 14.64 103.435 16.256 104.363 18.368L98.5554 21.488C97.2114 19.12 95.2754 17.936 92.7474 17.936C90.7954 17.936 89.1794 18.576 87.8994 19.856C86.6194 21.136 85.9794 22.88 85.9794 25.088C85.9794 27.296 86.6194 29.04 87.8994 30.32C89.1794 31.6 90.7954 32.24 92.7474 32.24C95.3074 32.24 97.2434 31.056 98.5554 28.688L104.363 31.856C103.435 33.904 101.947 35.504 99.8994 36.656C97.8834 37.808 95.5154 38.384 92.7954 38.384ZM130.611 38L124.131 28.64H123.747H116.979V38H109.203V4.4H123.747C126.723 4.4 129.299 4.896 131.475 5.888C133.683 6.88 135.379 8.288 136.563 10.112C137.747 11.936 138.339 14.096 138.339 16.592C138.339 19.088 137.731 21.248 136.515 23.072C135.331 24.864 133.635 26.24 131.427 27.2L138.963 38H130.611ZM130.467 16.592C130.467 14.704 129.859 13.264 128.643 12.272C127.427 11.248 125.651 10.736 123.315 10.736H116.979V22.448H123.315C125.651 22.448 127.427 21.936 128.643 20.912C129.859 19.888 130.467 18.448 130.467 16.592ZM169.268 25.184C169.268 25.28 169.22 25.952 169.124 27.2H149.588C149.94 28.8 150.772 30.064 152.084 30.992C153.396 31.92 155.028 32.384 156.98 32.384C158.324 32.384 159.508 32.192 160.532 31.808C161.588 31.392 162.564 30.752 163.46 29.888L167.444 34.208C165.012 36.992 161.46 38.384 156.788 38.384C153.876 38.384 151.3 37.824 149.06 36.704C146.82 35.552 145.092 33.968 143.876 31.952C142.66 29.936 142.052 27.648 142.052 25.088C142.052 22.56 142.644 20.288 143.828 18.272C145.044 16.224 146.692 14.64 148.772 13.52C150.884 12.368 153.236 11.792 155.828 11.792C158.356 11.792 160.644 12.336 162.692 13.424C164.74 14.512 166.34 16.08 167.492 18.128C168.676 20.144 169.268 22.496 169.268 25.184ZM155.876 17.456C154.18 17.456 152.756 17.936 151.604 18.896C150.452 19.856 149.748 21.168 149.492 22.832H162.212C161.956 21.2 161.252 19.904 160.1 18.944C158.948 17.952 157.54 17.456 155.876 17.456ZM183.966 11.792C187.966 11.792 191.038 12.752 193.182 14.672C195.326 16.56 196.398 19.424 196.398 23.264V38H189.39V34.784C187.982 37.184 185.358 38.384 181.518 38.384C179.534 38.384 177.806 38.048 176.334 37.376C174.894 36.704 173.79 35.776 173.022 34.592C172.254 33.408 171.87 32.064 171.87 30.56C171.87 28.16 172.766 26.272 174.558 24.896C176.382 23.52 179.182 22.832 182.958 22.832H188.91C188.91 21.2 188.414 19.952 187.422 19.088C186.43 18.192 184.942 17.744 182.958 17.744C181.582 17.744 180.222 17.968 178.878 18.416C177.566 18.832 176.446 19.408 175.518 20.144L172.83 14.912C174.238 13.92 175.918 13.152 177.87 12.608C179.854 12.064 181.886 11.792 183.966 11.792ZM183.39 33.344C184.67 33.344 185.806 33.056 186.798 32.48C187.79 31.872 188.494 30.992 188.91 29.84V27.2H183.774C180.702 27.2 179.166 28.208 179.166 30.224C179.166 31.184 179.534 31.952 180.27 32.528C181.038 33.072 182.078 33.344 183.39 33.344ZM215.936 38.384C213.184 38.384 210.704 37.824 208.496 36.704C206.32 35.552 204.608 33.968 203.36 31.952C202.144 29.936 201.536 27.648 201.536 25.088C201.536 22.528 202.144 20.24 203.36 18.224C204.608 16.208 206.32 14.64 208.496 13.52C210.704 12.368 213.184 11.792 215.936 11.792C218.656 11.792 221.024 12.368 223.04 13.52C225.088 14.64 226.576 16.256 227.504 18.368L221.696 21.488C220.352 19.12 218.416 17.936 215.888 17.936C213.936 17.936 212.32 18.576 211.04 19.856C209.76 21.136 209.12 22.88 209.12 25.088C209.12 27.296 209.76 29.04 211.04 30.32C212.32 31.6 213.936 32.24 215.888 32.24C218.448 32.24 220.384 31.056 221.696 28.688L227.504 31.856C226.576 33.904 225.088 35.504 223.04 36.656C221.024 37.808 218.656 38.384 215.936 38.384ZM248.846 36.752C248.11 37.296 247.198 37.712 246.11 38C245.054 38.256 243.934 38.384 242.75 38.384C239.678 38.384 237.294 37.6 235.598 36.032C233.934 34.464 233.102 32.16 233.102 29.12V18.512H229.118V12.752H233.102V6.464H240.59V12.752H247.022V18.512H240.59V29.024C240.59 30.112 240.862 30.96 241.406 31.568C241.982 32.144 242.782 32.432 243.806 32.432C244.99 32.432 245.998 32.112 246.83 31.472L248.846 36.752ZM278.25 20.528C280.17 21.136 281.674 22.16 282.762 23.6C283.85 25.008 284.394 26.752 284.394 28.832C284.394 31.776 283.242 34.048 280.938 35.648C278.666 37.216 275.338 38 270.954 38H253.578V4.4H269.994C274.09 4.4 277.226 5.184 279.402 6.752C281.61 8.32 282.714 10.448 282.714 13.136C282.714 14.768 282.314 16.224 281.514 17.504C280.746 18.784 279.658 19.792 278.25 20.528ZM261.306 10.256V18.176H269.034C270.954 18.176 272.41 17.84 273.402 17.168C274.394 16.496 274.89 15.504 274.89 14.192C274.89 12.88 274.394 11.904 273.402 11.264C272.41 10.592 270.954 10.256 269.034 10.256H261.306ZM270.378 32.144C272.426 32.144 273.962 31.808 274.986 31.136C276.042 30.464 276.57 29.424 276.57 28.016C276.57 25.232 274.506 23.84 270.378 23.84H261.306V32.144H270.378ZM302.041 38.384C299.321 38.384 296.873 37.824 294.697 36.704C292.553 35.552 290.873 33.968 289.657 31.952C288.441 29.936 287.833 27.648 287.833 25.088C287.833 22.528 288.441 20.24 289.657 18.224C290.873 16.208 292.553 14.64 294.697 13.52C296.873 12.368 299.321 11.792 302.041 11.792C304.761 11.792 307.193 12.368 309.337 13.52C311.481 14.64 313.161 16.208 314.377 18.224C315.593 20.24 316.201 22.528 316.201 25.088C316.201 27.648 315.593 29.936 314.377 31.952C313.161 33.968 311.481 35.552 309.337 36.704C307.193 37.824 304.761 38.384 302.041 38.384ZM302.041 32.24C303.961 32.24 305.529 31.6 306.745 30.32C307.993 29.008 308.617 27.264 308.617 25.088C308.617 22.912 307.993 21.184 306.745 19.904C305.529 18.592 303.961 17.936 302.041 17.936C300.121 17.936 298.537 18.592 297.289 19.904C296.041 21.184 295.417 22.912 295.417 25.088C295.417 27.264 296.041 29.008 297.289 30.32C298.537 31.6 300.121 32.24 302.041 32.24ZM321.206 12.176H328.694V38H321.206V12.176ZM324.95 8.576C323.574 8.576 322.454 8.176 321.59 7.376C320.726 6.576 320.294 5.584 320.294 4.4C320.294 3.216 320.726 2.224 321.59 1.424C322.454 0.623998 323.574 0.223997 324.95 0.223997C326.326 0.223997 327.446 0.607998 328.31 1.376C329.174 2.144 329.606 3.104 329.606 4.256C329.606 5.504 329.174 6.544 328.31 7.376C327.446 8.176 326.326 8.576 324.95 8.576ZM335.644 2.384H343.132V38H335.644V2.384ZM375.377 25.184C375.377 25.28 375.329 25.952 375.233 27.2H355.697C356.049 28.8 356.881 30.064 358.193 30.992C359.505 31.92 361.137 32.384 363.089 32.384C364.433 32.384 365.617 32.192 366.641 31.808C367.697 31.392 368.673 30.752 369.569 29.888L373.553 34.208C371.121 36.992 367.569 38.384 362.897 38.384C359.985 38.384 357.409 37.824 355.169 36.704C352.929 35.552 351.201 33.968 349.985 31.952C348.769 29.936 348.161 27.648 348.161 25.088C348.161 22.56 348.753 20.288 349.937 18.272C351.153 16.224 352.801 14.64 354.881 13.52C356.993 12.368 359.345 11.792 361.937 11.792C364.465 11.792 366.753 12.336 368.801 13.424C370.849 14.512 372.449 16.08 373.601 18.128C374.785 20.144 375.377 22.496 375.377 25.184ZM361.985 17.456C360.289 17.456 358.865 17.936 357.713 18.896C356.561 19.856 355.857 21.168 355.601 22.832H368.321C368.065 21.2 367.361 19.904 366.209 18.944C365.057 17.952 363.649 17.456 361.985 17.456ZM387.514 15.584C388.41 14.336 389.61 13.392 391.114 12.752C392.65 12.112 394.41 11.792 396.394 11.792V18.704C395.562 18.64 395.002 18.608 394.714 18.608C392.57 18.608 390.89 19.216 389.674 20.432C388.458 21.616 387.85 23.408 387.85 25.808V38H380.362V12.176H387.514V15.584ZM416.111 11.792C418.511 11.792 420.687 12.352 422.639 13.472C424.623 14.56 426.175 16.112 427.295 18.128C428.415 20.112 428.975 22.432 428.975 25.088C428.975 27.744 428.415 30.08 427.295 32.096C426.175 34.08 424.623 35.632 422.639 36.752C420.687 37.84 418.511 38.384 416.111 38.384C412.815 38.384 410.223 37.344 408.335 35.264V47.312H400.847V12.176H407.999V15.152C409.855 12.912 412.559 11.792 416.111 11.792ZM414.815 32.24C416.735 32.24 418.303 31.6 419.519 30.32C420.767 29.008 421.391 27.264 421.391 25.088C421.391 22.912 420.767 21.184 419.519 19.904C418.303 18.592 416.735 17.936 414.815 17.936C412.895 17.936 411.311 18.592 410.063 19.904C408.847 21.184 408.239 22.912 408.239 25.088C408.239 27.264 408.847 29.008 410.063 30.32C411.311 31.6 412.895 32.24 414.815 32.24ZM433.987 2.384H441.475V38H433.987V2.384ZM458.841 11.792C462.841 11.792 465.913 12.752 468.057 14.672C470.201 16.56 471.273 19.424 471.273 23.264V38H464.265V34.784C462.857 37.184 460.233 38.384 456.393 38.384C454.409 38.384 452.681 38.048 451.209 37.376C449.769 36.704 448.665 35.776 447.897 34.592C447.129 33.408 446.745 32.064 446.745 30.56C446.745 28.16 447.641 26.272 449.433 24.896C451.257 23.52 454.057 22.832 457.833 22.832H463.785C463.785 21.2 463.289 19.952 462.297 19.088C461.305 18.192 459.817 17.744 457.833 17.744C456.457 17.744 455.097 17.968 453.753 18.416C452.441 18.832 451.321 19.408 450.393 20.144L447.705 14.912C449.113 13.92 450.793 13.152 452.745 12.608C454.729 12.064 456.761 11.792 458.841 11.792ZM458.265 33.344C459.545 33.344 460.681 33.056 461.673 32.48C462.665 31.872 463.369 30.992 463.785 29.84V27.2H458.649C455.577 27.2 454.041 28.208 454.041 30.224C454.041 31.184 454.409 31.952 455.145 32.528C455.913 33.072 456.953 33.344 458.265 33.344ZM494.706 36.752C493.97 37.296 493.058 37.712 491.97 38C490.914 38.256 489.794 38.384 488.61 38.384C485.538 38.384 483.154 37.6 481.458 36.032C479.794 34.464 478.962 32.16 478.962 29.12V18.512H474.978V12.752H478.962V6.464H486.45V12.752H492.882V18.512H486.45V29.024C486.45 30.112 486.722 30.96 487.266 31.568C487.842 32.144 488.642 32.432 489.666 32.432C490.85 32.432 491.858 32.112 492.69 31.472L494.706 36.752ZM523.408 25.184C523.408 25.28 523.36 25.952 523.264 27.2H503.728C504.08 28.8 504.912 30.064 506.224 30.992C507.536 31.92 509.168 32.384 511.12 32.384C512.464 32.384 513.648 32.192 514.672 31.808C515.728 31.392 516.704 30.752 517.6 29.888L521.584 34.208C519.152 36.992 515.6 38.384 510.928 38.384C508.016 38.384 505.44 37.824 503.2 36.704C500.96 35.552 499.232 33.968 498.016 31.952C496.8 29.936 496.192 27.648 496.192 25.088C496.192 22.56 496.784 20.288 497.968 18.272C499.184 16.224 500.832 14.64 502.912 13.52C505.024 12.368 507.376 11.792 509.968 11.792C512.496 11.792 514.784 12.336 516.832 13.424C518.88 14.512 520.48 16.08 521.632 18.128C522.816 20.144 523.408 22.496 523.408 25.184ZM510.016 17.456C508.32 17.456 506.896 17.936 505.744 18.896C504.592 19.856 503.888 21.168 503.632 22.832H516.352C516.096 21.2 515.392 19.904 514.24 18.944C513.088 17.952 511.68 17.456 510.016 17.456Z" fill="#51A5E2"/>
</svg>
